<?xml version="1.0" standalone="no"?>
<!DOCTYPE svg PUBLIC "-//W3C//DTD SVG 20010904//EN"
 "http://www.w3.org/TR/2001/REC-SVG-20010904/DTD/svg10.dtd">
<svg version="1.0" xmlns="http://www.w3.org/2000/svg"
 width="500.000000pt" height="500.000000pt" viewBox="0 0 500.000000 500.000000"
 preserveAspectRatio="xMidYMid meet">
<metadata>
Created by potrace 1.14, written by Peter Selinger 2001-2017
</metadata>
<g transform="translate(0.000000,500.000000) scale(0.100000,-0.100000)"
fill="#000000" stroke="none">
<path d="M2189 4802 c-168 -109 -362 -234 -430 -278 -68 -44 -270 -174 -449
-288 -276 -177 -624 -400 -867 -557 l-62 -39 0 -1170 1 -1169 46 -27 c26 -15
70 -42 97 -59 49 -32 510 -315 563 -346 47 -28 585 -360 622 -384 19 -12 205
-127 413 -254 l377 -231 303 186 c166 103 318 196 337 207 34 19 118 71 170
106 14 10 61 39 105 65 44 26 123 74 175 107 52 33 103 62 113 65 9 4 17 10
17 15 0 5 5 9 10 9 6 0 23 9 38 19 15 10 158 99 317 196 160 98 306 187 325
200 19 12 74 46 122 75 l86 54 1 1161 c0 638 -4 1166 -8 1174 -5 7 -45 37 -90
65 -157 98 -767 490 -851 546 -47 31 -92 59 -100 63 -8 4 -87 54 -175 111 -88
58 -196 128 -240 156 -255 162 -362 231 -375 240 -50 34 -279 180 -282 179 -2
0 -141 -89 -309 -197z"/>
</g>
</svg>
